<svg xmlns="http://www.w3.org/2000/svg" fill="none" viewBox="0 0 39 47"><path fill="#6851FF" fill-rule="evenodd" d="M19.458 0a56.467 56.467 0 006.691 6.901 56.11 56.11 0 00-2.482 16.558 56.1 56.1 0 002.482 16.558 56.47 56.47 0 00-6.691 6.901 56.464 56.464 0 00-6.692-6.901 56.114 56.114 0 002.482-16.558c0-5.763-.868-11.324-2.482-16.557A56.468 56.468 0 0019.458 0zM8.138 36.399A56.073 56.073 0 000 31.659a28.06 28.06 0 001.217-8.2A28.06 28.06 0 000 15.26a56.065 56.065 0 008.137-4.74 56.28 56.28 0 011.5 12.94c0 4.453-.52 8.786-1.5 12.94l.001-.001zm21.141-12.94c0 4.453.519 8.786 1.5 12.94a56.074 56.074 0 018.136-4.74 28.059 28.059 0 01-1.217-8.2c0-2.853.426-5.606 1.217-8.2a56.075 56.075 0 01-8.137-4.739 56.282 56.282 0 00-1.499 12.94v-.001z" clip-rule="evenodd"/></svg>